<svg width="200" height="200" viewBox="0 0 200 200" fill="none" xmlns="http://www.w3.org/2000/svg">
<path d="M162.5 3.25H37.5C20.2411 3.25 6.25 17.2411 6.25 34.5V159.5C6.25 176.759 20.2411 190.75 37.5 190.75H162.5C179.759 190.75 193.75 176.759 193.75 159.5V34.5C193.75 17.2411 179.759 3.25 162.5 3.25Z" fill="url(#paint0_linear_166_62)" stroke="#D4A017" stroke-width="6.25"/>
<path d="M79.625 50.375C79.625 50.375 85.875 41 95.25 41C104.625 41 110.875 50.375 110.875 50.375" stroke="#8B4513" stroke-width="4.6875" stroke-linecap="round"/>
<path d="M95.25 55C77.9906 55 64 68.9906 64 86.25H126.5C126.5 68.9906 112.509 55 95.25 55Z" fill="#4A2F1B"/>
<path d="M123.75 97.5C130 97.5 136.25 91.25 136.25 85C136.25 78.75 130 72.5 123.75 72.5" stroke="#4A2F1B" stroke-width="6.25" stroke-linecap="round"/>
<path d="M95.25 109.25C109.057 109.25 120.25 98.0571 120.25 84.25C120.25 70.4429 109.057 59.25 95.25 59.25C81.4429 59.25 70.25 70.4429 70.25 84.25C70.25 98.0571 81.4429 109.25 95.25 109.25Z" fill="#8B4513"/>
<path opacity="0.3" d="M95.25 84.25C102.154 84.25 107.75 81.4518 107.75 78C107.75 74.5482 102.154 71.75 95.25 71.75C88.3464 71.75 82.75 74.5482 82.75 78C82.75 81.4518 88.3464 84.25 95.25 84.25Z" fill="#D2691E"/>
<path d="M64 85.5C64 102.759 77.9906 116.75 95.25 116.75C112.509 116.75 126.5 102.759 126.5 85.5H64Z" fill="#6F4E37"/>
<path d="M39.5667 154.5V140.864H48.5954V143.241H42.4497V146.49H47.9962V148.867H42.4497V154.5H39.5667ZM50.5347 154.5V140.864H55.9147C56.9445 140.864 57.8234 141.048 58.5514 141.416C59.2838 141.78 59.8409 142.297 60.2226 142.968C60.6088 143.634 60.8019 144.417 60.8019 145.318C60.8019 146.224 60.6066 147.003 60.216 147.655C59.8253 148.303 59.2594 148.8 58.5181 149.147C57.7812 149.493 56.889 149.666 55.8414 149.666H52.2392V147.349H55.3753C55.9257 147.349 56.383 147.273 56.7469 147.123C57.1109 146.972 57.3817 146.745 57.5593 146.443C57.7413 146.142 57.8323 145.766 57.8323 145.318C57.8323 144.865 57.7413 144.484 57.5593 144.173C57.3817 143.862 57.1087 143.627 56.7403 143.467C56.3763 143.303 55.9169 143.221 55.362 143.221H53.4178V154.5H50.5347ZM57.8988 148.294L61.288 154.5H58.1053L54.7894 148.294H57.8988ZM62.8394 154.5V140.864H72.0279V143.241H65.7224V146.49H71.5552V148.867H65.7224V152.123H72.0546V154.5H62.8394ZM74.3201 154.5V140.864H83.5086V143.241H77.2032V146.49H83.0359V148.867H77.2032V152.123H83.5353V154.5H74.3201ZM102.172 145.638H99.2557C99.2024 145.26 99.0937 144.925 98.9295 144.632C98.7652 144.335 98.5544 144.082 98.2969 143.873C98.0395 143.665 97.742 143.505 97.4047 143.394C97.0718 143.283 96.71 143.227 96.3194 143.227C95.6136 143.227 94.9988 143.403 94.475 143.753C93.9512 144.1 93.545 144.606 93.2565 145.271C92.968 145.933 92.8237 146.736 92.8237 147.682C92.8237 148.654 92.968 149.471 93.2565 150.132C93.5495 150.794 93.9579 151.293 94.4817 151.63C95.0054 151.968 95.6114 152.136 96.2994 152.136C96.6856 152.136 97.0429 152.085 97.3714 151.983C97.7043 151.881 97.9995 151.732 98.257 151.537C98.5144 151.337 98.7275 151.095 98.8962 150.811C99.0693 150.527 99.1891 150.203 99.2557 149.839L102.172 149.852C102.097 150.478 101.908 151.082 101.606 151.664C101.309 152.241 100.907 152.758 100.401 153.215C99.8994 153.668 99.3001 154.027 98.6032 154.294C97.9107 154.555 97.1273 154.686 96.2528 154.686C95.0365 154.686 93.949 154.411 92.9902 153.861C92.0358 153.31 91.2812 152.514 90.7263 151.47C90.1759 150.427 89.9007 149.164 89.9007 147.682C89.9007 146.195 90.1803 144.93 90.7396 143.887C91.299 142.843 92.058 142.049 93.0168 141.503C93.9756 140.952 95.0543 140.677 96.2528 140.677C97.0429 140.677 97.7753 140.788 98.4501 141.01C99.1292 141.232 99.7307 141.556 100.254 141.982C100.778 142.404 101.204 142.921 101.533 143.534C101.866 144.146 102.079 144.848 102.172 145.638ZM116.771 147.682C116.771 149.169 116.489 150.434 115.925 151.477C115.366 152.52 114.602 153.317 113.634 153.867C112.671 154.413 111.588 154.686 110.385 154.686C109.173 154.686 108.086 154.411 107.123 153.861C106.159 153.31 105.398 152.514 104.839 151.47C104.279 150.427 104 149.164 104 147.682C104 146.195 104.279 144.93 104.839 143.887C105.398 142.843 106.159 142.049 107.123 141.503C108.086 140.952 109.173 140.677 110.385 140.677C111.588 140.677 112.671 140.952 113.634 141.503C114.602 142.049 115.366 142.843 115.925 143.887C116.489 144.93 116.771 146.195 116.771 147.682ZM113.848 147.682C113.848 146.719 113.703 145.906 113.415 145.245C113.131 144.583 112.729 144.082 112.21 143.74C111.69 143.398 111.082 143.227 110.385 143.227C109.688 143.227 109.08 143.398 108.561 143.74C108.041 144.082 107.638 144.583 107.349 145.245C107.065 145.906 106.923 146.719 106.923 147.682C106.923 148.645 107.065 149.457 107.349 150.119C107.638 150.78 108.041 151.282 108.561 151.624C109.08 151.965 109.688 152.136 110.385 152.136C111.082 152.136 111.69 151.965 112.21 151.624C112.729 151.282 113.131 150.78 113.415 150.119C113.703 149.457 113.848 148.645 113.848 147.682ZM118.906 154.5V140.864H127.935V143.241H121.789V146.49H127.336V148.867H121.789V154.5H118.906ZM129.874 154.5V140.864H138.903V143.241H132.757V146.49H138.304V148.867H132.757V154.5H129.874ZM140.842 154.5V140.864H150.031V143.241H143.725V146.49H149.558V148.867H143.725V152.123H150.057V154.5H140.842ZM152.323 154.5V140.864H161.512V143.241H155.206V146.49H161.039V148.867H155.206V152.123H161.538V154.5H152.323Z" fill="#4A2F1B"/>
<defs>
<linearGradient id="paint0_linear_166_62" x1="6.25" y1="3.25" x2="18756.3" y2="18753.3" gradientUnits="userSpaceOnUse">
<stop stop-color="#FFF5E6"/>
<stop offset="1" stop-color="#FFE0B3"/>
</linearGradient>
</defs>
</svg>
