<svg xmlns="http://www.w3.org/2000/svg" id="canvas" viewBox="414.823 325.277 892.966 258.548"><path d="M 469.25,329.54 C 467.92 331.28, 468.26 333.61, 468.23 338.28 C 468.19 342.95, 468.78 346.03, 469.07 352.90 C 469.36 359.77, 469.65 364.12, 469.68 372.62 C 469.70 381.13, 469.53 385.56, 469.20 395.42 C 468.88 405.28, 468.74 410.98, 468.04 421.93 C 467.35 432.87, 466.68 438.94, 465.74 450.16 C 464.80 461.37, 464.12 467.15, 463.33 478.01 C 462.55 488.86, 462.28 494.53, 461.82 504.45 C 461.35 514.36, 461.29 519.29, 461.02 527.58 C 460.75 535.86, 460.74 539.41, 460.47 545.85 C 460.19 552.30, 459.84 555.23, 459.63 559.79 C 459.42 564.36, 459.16 566.25, 459.40 568.69 C 459.63 571.13, 460.00 571.14, 460.81 571.98 C 461.62 572.81, 462.18 573.40, 463.45 572.87 C 464.72 572.34, 466.51 571.96, 467.17 569.33 C 467.83 566.71, 467.01 564.44, 466.73 559.75 C 466.46 555.05, 466.05 552.28, 465.79 545.86 C 465.53 539.44, 465.45 535.90, 465.43 527.64 C 465.42 519.39, 465.40 514.47, 465.71 504.60 C 466.02 494.72, 466.25 489.09, 466.98 478.26 C 467.71 467.44, 468.40 461.68, 469.38 450.47 C 470.37 439.26, 471.06 433.16, 471.89 422.19 C 472.71 411.22, 472.90 405.51, 473.51 395.62 C 474.11 385.73, 474.49 381.30, 474.90 372.74 C 475.31 364.18, 475.39 359.75, 475.55 352.84 C 475.71 345.93, 475.83 342.85, 475.70 338.20 C 475.56 333.55, 476.16 331.34, 474.87 329.61 C 473.58 327.88, 470.58 327.81, 469.25 329.54" style="stroke: black; fill: black;"/><path d="M 418.34,477.98 C 419.21 479.81, 420.30 481.13, 423.14 481.75 C 425.97 482.37, 428.00 481.52, 432.52 481.06 C 437.04 480.60, 439.81 480.11, 445.73 479.44 C 451.64 478.77, 455.07 478.70, 462.08 477.71 C 469.09 476.71, 473.29 475.73, 480.79 474.45 C 488.29 473.17, 492.14 472.42, 499.57 471.30 C 506.99 470.18, 511.09 469.77, 517.92 468.85 C 524.76 467.93, 528.19 467.61, 533.75 466.70 C 539.30 465.78, 541.93 465.47, 545.68 464.28 C 549.44 463.09, 551.40 462.30, 552.52 460.76 C 553.64 459.22, 553.00 457.27, 551.28 456.58 C 549.55 455.89, 547.67 456.58, 543.91 457.30 C 540.16 458.02, 537.87 459.00, 532.50 460.17 C 527.13 461.34, 523.81 462.02, 517.06 463.17 C 510.31 464.32, 506.18 464.76, 498.75 465.90 C 491.31 467.04, 487.38 467.77, 479.90 468.87 C 472.43 469.97, 468.29 470.84, 461.37 471.40 C 454.46 471.95, 451.12 471.73, 445.33 471.65 C 439.55 471.57, 436.75 471.40, 432.44 471.00 C 428.13 470.61, 426.50 469.38, 423.78 469.70 C 421.06 470.02, 419.91 470.95, 418.82 472.61 C 417.73 474.26, 417.48 476.15, 418.34 477.98" style="stroke: black; fill: black;"/><path d="M 566.20,439.54 C 564.75 439.78, 564.64 439.55, 563.49 440.66 C 562.35 441.77, 561.33 441.99, 560.48 445.10 C 559.63 448.21, 559.96 450.98, 559.25 456.20 C 558.53 461.42, 557.93 464.83, 556.89 471.20 C 555.85 477.58, 555.22 481.26, 554.05 488.08 C 552.88 494.91, 551.90 498.52, 551.02 505.33 C 550.14 512.14, 549.84 515.81, 549.65 522.12 C 549.47 528.44, 549.53 531.65, 550.09 536.90 C 550.66 542.14, 550.78 544.30, 552.49 548.34 C 554.20 552.39, 555.26 554.71, 558.65 557.11 C 562.04 559.52, 565.02 560.59, 569.44 560.35 C 573.86 560.10, 575.98 558.62, 580.74 555.91 C 585.51 553.19, 587.97 551.45, 593.27 546.77 C 598.57 542.09, 601.67 539.08, 607.23 532.49 C 612.79 525.90, 615.50 521.50, 621.08 513.82 C 626.65 506.13, 629.73 501.84, 635.09 494.06 C 640.45 486.28, 643.23 482.01, 647.88 474.92 C 652.52 467.84, 654.69 464.13, 658.31 458.62 C 661.93 453.11, 664.41 450.69, 665.97 447.36 C 667.54 444.04, 667.05 442.48, 666.13 442.00 C 665.22 441.52, 662.64 441.92, 661.40 444.97 C 660.17 448.02, 660.49 451.15, 659.97 457.26 C 659.44 463.36, 659.06 467.82, 658.78 475.50 C 658.50 483.19, 658.47 487.61, 658.57 495.67 C 658.67 503.72, 658.85 508.09, 659.28 515.77 C 659.71 523.46, 659.95 527.43, 660.71 534.09 C 661.47 540.75, 662.17 543.87, 663.09 549.06 C 664.00 554.25, 664.10 556.79, 665.30 560.06 C 666.51 563.32, 667.34 563.96, 669.11 565.39 C 670.87 566.82, 672.54 567.27, 674.13 567.21 C 675.72 567.16, 676.91 566.12, 677.06 565.11 C 677.21 564.09, 675.30 562.74, 674.88 562.14 C 674.46 561.54, 674.90 562.42, 674.97 562.11 C 675.04 561.81, 675.43 561.70, 675.24 560.62 C 675.05 559.53, 675.09 559.35, 674.02 556.71 C 672.96 554.06, 671.43 552.06, 669.91 547.38 C 668.40 542.69, 667.51 539.67, 666.45 533.29 C 665.39 526.90, 665.07 522.98, 664.59 515.45 C 664.11 507.93, 663.91 503.58, 664.03 495.68 C 664.16 487.78, 664.45 483.44, 665.23 475.95 C 666.01 468.47, 666.92 464.23, 667.93 458.27 C 668.94 452.31, 670.61 449.78, 670.27 446.16 C 669.94 442.54, 668.34 440.70, 666.25 440.15 C 664.15 439.60, 662.34 440.29, 659.79 443.40 C 657.23 446.51, 656.64 449.90, 653.46 455.71 C 650.29 461.51, 648.32 465.24, 643.92 472.41 C 639.51 479.58, 636.75 483.81, 631.43 491.54 C 626.12 499.27, 622.98 503.57, 617.35 511.06 C 611.71 518.56, 608.89 522.86, 603.26 529.01 C 597.64 535.17, 594.45 537.86, 589.22 541.83 C 583.98 545.81, 581.15 547.02, 577.10 548.87 C 573.05 550.72, 571.58 550.97, 568.96 551.08 C 566.35 551.20, 565.82 550.70, 564.04 549.46 C 562.27 548.23, 561.45 547.60, 560.09 544.89 C 558.73 542.17, 558.05 540.43, 557.24 535.89 C 556.43 531.35, 556.09 528.15, 556.05 522.19 C 556.00 516.24, 556.18 512.68, 557.02 506.10 C 557.86 499.51, 558.83 495.94, 560.25 489.27 C 561.66 482.60, 562.43 478.88, 564.08 472.75 C 565.73 466.62, 566.62 463.37, 568.50 458.61 C 570.38 453.84, 572.48 452.12, 573.48 448.92 C 574.48 445.72, 574.07 444.52, 573.52 442.63 C 572.96 440.73, 572.18 440.06, 570.72 439.44 C 569.25 438.82, 567.64 439.29, 566.20 439.54" style="stroke: black; fill: black;"/><path d="M 718.02,354.00 C 716.89 354.70, 715.88 354.10, 715.45 355.80 C 715.02 357.50, 715.42 358.50, 715.86 362.52 C 716.31 366.54, 717.26 369.39, 717.68 375.92 C 718.09 382.45, 718.29 386.73, 717.94 395.17 C 717.59 403.62, 716.95 408.57, 715.95 418.14 C 714.94 427.71, 714.18 433.00, 712.90 443.02 C 711.62 453.04, 710.75 458.34, 709.57 468.22 C 708.39 478.11, 707.79 483.30, 707.00 492.44 C 706.20 501.59, 706.13 506.10, 705.59 513.94 C 705.05 521.78, 704.90 525.46, 704.30 531.64 C 703.70 537.82, 702.77 540.75, 702.58 544.84 C 702.39 548.92, 702.29 550.09, 703.33 552.05 C 704.38 554.02, 706.34 554.44, 707.82 554.68 C 709.31 554.93, 710.67 554.18, 710.77 553.29 C 710.88 552.41, 708.86 550.67, 708.35 550.28 C 707.84 549.89, 707.89 551.24, 708.23 551.35 C 708.58 551.46, 709.61 552.08, 710.07 550.82 C 710.53 549.56, 710.50 548.82, 710.51 545.04 C 710.52 541.26, 710.15 538.08, 710.11 531.90 C 710.07 525.73, 710.10 521.99, 710.33 514.17 C 710.55 506.34, 710.58 501.87, 711.23 492.78 C 711.88 483.69, 712.44 478.54, 713.59 468.70 C 714.74 458.85, 715.62 453.57, 716.99 443.56 C 718.36 433.56, 719.17 428.27, 720.45 418.68 C 721.72 409.08, 722.45 404.10, 723.37 395.58 C 724.29 387.06, 724.37 382.76, 725.04 376.06 C 725.71 369.36, 726.63 366.51, 726.73 362.07 C 726.83 357.64, 726.67 355.84, 725.54 353.88 C 724.41 351.92, 722.61 352.27, 721.10 352.30 C 719.60 352.32, 719.15 353.30, 718.02 354.00" style="stroke: black; fill: black;"/><path d="M 772.79,440.01 C 771.70 438.49, 770.84 437.16, 767.82 437.23 C 764.81 437.30, 762.66 438.33, 757.71 440.37 C 752.77 442.40, 749.35 443.97, 743.11 447.40 C 736.88 450.82, 733.17 453.09, 726.53 457.51 C 719.88 461.94, 715.88 464.60, 709.89 469.53 C 703.89 474.47, 700.92 477.18, 696.57 482.19 C 692.22 487.19, 690.22 489.62, 688.14 494.56 C 686.06 499.50, 685.51 502.33, 686.18 506.89 C 686.84 511.44, 688.25 513.67, 691.47 517.34 C 694.68 521.01, 697.17 522.61, 702.24 525.23 C 707.31 527.84, 710.35 528.84, 716.82 530.42 C 723.29 532.00, 727.22 532.41, 734.60 533.13 C 741.97 533.85, 746.07 534.06, 753.70 534.03 C 761.33 534.00, 765.21 533.81, 772.74 532.98 C 780.28 532.16, 784.32 531.50, 791.39 529.89 C 798.45 528.28, 801.82 527.30, 808.08 524.94 C 814.33 522.58, 817.17 521.24, 822.67 518.08 C 828.16 514.92, 830.80 513.21, 835.56 509.14 C 840.31 505.07, 842.62 502.75, 846.44 497.72 C 850.27 492.68, 851.97 489.58, 854.68 483.97 C 857.39 478.35, 858.38 475.34, 859.99 469.64 C 861.60 463.94, 862.47 460.97, 862.74 455.47 C 863.01 449.96, 862.73 446.91, 861.35 442.13 C 859.97 437.34, 858.77 435.09, 855.83 431.55 C 852.89 428.02, 850.76 426.28, 846.65 424.47 C 842.53 422.65, 839.94 422.21, 835.23 422.48 C 830.53 422.75, 827.72 423.51, 823.11 425.82 C 818.51 428.13, 816.16 429.95, 812.21 434.02 C 808.26 438.09, 806.34 440.77, 803.35 446.17 C 800.37 451.57, 799.01 454.83, 797.29 461.02 C 795.57 467.21, 794.91 470.59, 794.75 477.11 C 794.58 483.63, 794.91 487.28, 796.48 493.61 C 798.05 499.94, 799.45 503.27, 802.59 508.76 C 805.73 514.26, 807.79 516.71, 812.20 521.08 C 816.61 525.45, 819.13 527.46, 824.63 530.61 C 830.13 533.76, 833.43 535.27, 839.69 536.82 C 845.95 538.37, 849.47 538.57, 855.93 538.35 C 862.39 538.14, 865.82 537.51, 871.97 535.74 C 878.12 533.96, 881.20 532.77, 886.68 529.47 C 892.15 526.17, 894.89 523.91, 899.37 519.22 C 903.85 514.53, 905.81 511.71, 909.08 506.01 C 912.34 500.32, 913.52 497.07, 915.70 490.74 C 917.87 484.42, 918.82 480.90, 919.96 474.41 C 921.10 467.91, 921.05 464.28, 921.42 458.26 C 921.78 452.24, 922.24 448.73, 921.81 444.30 C 921.37 439.88, 921.15 437.56, 919.24 436.12 C 917.33 434.68, 913.75 434.80, 912.25 437.12 C 910.75 439.43, 911.51 442.09, 911.73 447.70 C 911.96 453.31, 912.61 457.67, 913.37 465.17 C 914.14 472.67, 914.90 477.35, 915.57 485.21 C 916.24 493.07, 916.35 497.58, 916.73 504.48 C 917.11 511.38, 916.83 514.90, 917.47 519.71 C 918.11 524.51, 918.11 526.73, 919.92 528.51 C 921.72 530.29, 924.82 530.18, 926.51 528.61 C 928.20 527.04, 928.24 525.26, 928.38 520.65 C 928.51 516.03, 927.62 512.21, 927.17 505.53 C 926.73 498.84, 926.06 494.82, 926.15 487.24 C 926.23 479.66, 926.50 475.32, 927.60 467.63 C 928.70 459.94, 929.29 455.81, 931.63 448.79 C 933.98 441.77, 935.73 438.38, 939.34 432.53 C 942.94 426.69, 945.18 423.91, 949.65 419.56 C 954.13 415.20, 956.69 413.38, 961.73 410.75 C 966.77 408.12, 970.10 407.37, 974.87 406.41 C 979.64 405.45, 981.73 405.50, 985.57 405.95 C 989.42 406.40, 991.20 407.08, 994.08 408.65 C 996.97 410.22, 998.04 412.14, 1000.01 413.79 C 1001.97 415.45, 1002.47 416.06, 1003.91 416.92 C 1005.34 417.77, 1006.06 417.80, 1007.16 418.06 C 1008.25 418.33, 1008.37 418.43, 1009.39 418.24 C 1010.41 418.04, 1011.50 417.91, 1012.27 417.08 C 1013.03 416.24, 1013.30 415.61, 1013.22 414.07 C 1013.13 412.54, 1013.07 411.38, 1011.83 409.41 C 1010.60 407.45, 1009.89 406.13, 1007.02 404.23 C 1004.16 402.34, 1001.71 401.19, 997.51 399.96 C 993.31 398.73, 990.88 398.17, 986.03 398.11 C 981.19 398.05, 978.74 398.21, 973.28 399.66 C 967.82 401.10, 964.26 402.14, 958.74 405.32 C 953.22 408.51, 950.47 410.69, 945.68 415.58 C 940.89 420.47, 938.59 423.46, 934.81 429.78 C 931.02 436.09, 929.23 439.74, 926.75 447.15 C 924.27 454.56, 923.72 458.86, 922.40 466.83 C 921.09 474.79, 920.77 479.21, 920.18 486.98 C 919.59 494.74, 919.69 498.84, 919.44 505.64 C 919.19 512.44, 918.49 516.46, 918.93 520.96 C 919.36 525.46, 920.20 526.99, 921.62 528.12 C 923.04 529.25, 925.38 528.49, 926.04 526.60 C 926.70 524.71, 925.58 523.19, 924.92 518.67 C 924.26 514.15, 923.43 510.79, 922.73 504.01 C 922.04 497.24, 921.90 492.65, 921.45 484.79 C 921.00 476.93, 920.71 472.17, 920.47 464.70 C 920.23 457.22, 920.39 452.84, 920.26 447.42 C 920.12 442.00, 921.01 439.65, 919.78 437.58 C 918.55 435.52, 915.47 435.65, 914.11 437.10 C 912.75 438.55, 912.91 440.62, 912.98 444.83 C 913.06 449.04, 914.32 452.43, 914.49 458.14 C 914.65 463.86, 914.71 467.28, 913.80 473.40 C 912.88 479.53, 911.93 482.86, 909.93 488.77 C 907.92 494.68, 906.76 497.72, 903.75 502.95 C 900.74 508.18, 898.94 510.69, 894.88 514.92 C 890.82 519.15, 888.38 521.15, 883.45 524.10 C 878.52 527.05, 875.78 528.11, 870.24 529.70 C 864.69 531.28, 861.52 531.83, 855.72 532.02 C 849.92 532.21, 846.81 532.03, 841.22 530.64 C 835.64 529.25, 832.71 527.90, 827.80 525.08 C 822.88 522.27, 820.61 520.46, 816.67 516.57 C 812.72 512.67, 810.90 510.51, 808.09 505.61 C 805.28 500.72, 804.00 497.75, 802.61 492.09 C 801.21 486.43, 800.90 483.15, 801.12 477.31 C 801.33 471.46, 802.00 468.39, 803.68 462.88 C 805.37 457.36, 806.73 454.38, 809.54 449.73 C 812.34 445.07, 814.25 442.82, 817.70 439.60 C 821.15 436.37, 823.20 435.17, 826.80 433.60 C 830.40 432.02, 832.46 431.82, 835.69 431.70 C 838.93 431.57, 840.28 431.85, 842.98 432.97 C 845.68 434.10, 847.05 435.01, 849.19 437.32 C 851.33 439.64, 852.44 440.95, 853.68 444.53 C 854.93 448.11, 855.47 450.57, 855.41 455.23 C 855.36 459.90, 854.74 462.68, 853.41 467.86 C 852.08 473.05, 851.18 475.96, 848.76 481.17 C 846.35 486.37, 844.80 489.23, 841.35 493.90 C 837.90 498.56, 835.84 500.66, 831.51 504.47 C 827.17 508.29, 824.77 509.92, 819.67 512.95 C 814.58 515.99, 811.93 517.31, 806.03 519.64 C 800.13 521.96, 796.93 522.97, 790.16 524.58 C 783.38 526.19, 779.45 526.89, 772.16 527.68 C 764.88 528.47, 761.10 528.64, 753.72 528.55 C 746.34 528.46, 742.30 528.16, 735.26 527.25 C 728.23 526.34, 724.43 525.71, 718.54 523.98 C 712.65 522.25, 710.04 520.99, 705.81 518.60 C 701.58 516.20, 699.82 514.60, 697.38 512.00 C 694.95 509.41, 694.25 508.62, 693.64 505.63 C 693.04 502.64, 692.87 500.99, 694.36 497.07 C 695.85 493.15, 697.28 490.66, 701.10 486.02 C 704.91 481.37, 707.72 478.55, 713.44 473.84 C 719.15 469.13, 723.13 466.48, 729.69 462.45 C 736.24 458.42, 740.06 456.37, 746.22 453.69 C 752.38 451.01, 755.80 450.09, 760.49 449.05 C 765.18 448.00, 767.11 449.30, 769.66 448.46 C 772.22 447.62, 772.64 446.53, 773.27 444.84 C 773.89 443.15, 773.88 441.54, 772.79 440.01" style="stroke: black; fill: black;"/><path d="M 1051.60,515.25 C 1053.52 514.78, 1055.94 512.96, 1056.30 512.11 C 1056.67 511.26, 1055.86 510.12, 1053.42 511.01 C 1050.99 511.89, 1046.41 515.36, 1044.14 516.53 C 1041.88 517.70, 1041.61 517.27, 1042.12 516.86 C 1042.63 516.45, 1044.80 514.80, 1046.70 514.48 C 1048.60 514.16, 1049.68 515.72, 1051.60 515.25" style="stroke: black; fill: black;"/><path d="M 1123.34,441.02 C 1122.11 442.15, 1121.64 442.69, 1121.58 444.64 C 1121.52 446.58, 1122.30 447.22, 1123.05 450.74 C 1123.81 454.27, 1124.70 456.83, 1125.37 462.28 C 1126.05 467.72, 1126.22 471.23, 1126.44 477.96 C 1126.66 484.70, 1126.40 488.79, 1126.49 495.96 C 1126.57 503.13, 1126.65 506.88, 1126.86 513.82 C 1127.06 520.76, 1126.98 524.65, 1127.52 530.67 C 1128.06 536.69, 1128.08 539.95, 1129.57 543.92 C 1131.06 547.90, 1132.53 549.34, 1134.96 550.55 C 1137.39 551.77, 1139.89 550.98, 1141.72 549.99 C 1143.55 549.00, 1144.73 547.03, 1144.10 545.60 C 1143.48 544.18, 1139.90 542.91, 1138.59 542.86 C 1137.28 542.82, 1137.41 544.83, 1137.54 545.39 C 1137.66 545.95, 1139.17 546.51, 1139.21 545.65 C 1139.25 544.79, 1138.72 544.27, 1137.73 541.09 C 1136.73 537.92, 1135.21 535.28, 1134.23 529.78 C 1133.26 524.28, 1133.19 520.35, 1132.84 513.58 C 1132.50 506.82, 1132.43 503.07, 1132.51 495.96 C 1132.59 488.84, 1132.96 484.79, 1133.24 477.99 C 1133.53 471.19, 1133.67 467.74, 1133.92 461.96 C 1134.18 456.18, 1134.88 453.24, 1134.53 449.09 C 1134.17 444.93, 1133.52 443.19, 1132.17 441.17 C 1130.81 439.15, 1129.51 439.03, 1127.74 439.00 C 1125.98 438.97, 1124.58 439.89, 1123.34 441.02" style="stroke: black; fill: black;"/><path d="M 1130.52,353.95 C 1132.00 355.71, 1133.91 356.21, 1134.51 356.10 C 1135.10 355.99, 1133.79 354.41, 1133.48 353.42 C 1133.18 352.43, 1132.76 352.47, 1132.98 351.16 C 1133.20 349.85, 1134.81 348.34, 1134.57 346.86 C 1134.32 345.37, 1133.18 344.53, 1131.75 343.75 C 1130.33 342.96, 1128.37 342.21, 1127.44 342.92 C 1126.50 343.63, 1126.47 345.10, 1127.09 347.31 C 1127.70 349.52, 1129.03 352.19, 1130.52 353.95" style="stroke: black; fill: black;"/><path d="M 1190.97,453.58 C 1189.96 455.18, 1190.13 456.23, 1190.73 459.02 C 1191.32 461.81, 1192.79 463.19, 1193.94 467.56 C 1195.09 471.93, 1195.79 474.93, 1196.47 480.87 C 1197.15 486.82, 1197.27 490.44, 1197.34 497.29 C 1197.41 504.13, 1197.30 508.18, 1196.81 515.09 C 1196.33 522.00, 1195.76 526.16, 1194.91 531.83 C 1194.06 537.49, 1192.33 539.92, 1192.56 543.40 C 1192.79 546.87, 1193.94 548.43, 1196.06 549.20 C 1198.18 549.97, 1201.29 549.85, 1203.16 547.27 C 1205.03 544.69, 1204.01 541.71, 1205.41 536.31 C 1206.82 530.90, 1207.72 527.29, 1210.19 520.25 C 1212.66 513.21, 1214.42 508.65, 1217.77 501.10 C 1221.12 493.54, 1223.01 489.28, 1226.93 482.47 C 1230.84 475.67, 1233.19 472.43, 1237.35 467.07 C 1241.51 461.71, 1243.83 459.07, 1247.73 455.65 C 1251.63 452.23, 1253.49 451.26, 1256.85 449.96 C 1260.21 448.65, 1261.47 448.66, 1264.54 449.13 C 1267.61 449.61, 1268.99 449.94, 1272.20 452.32 C 1275.41 454.69, 1277.32 456.54, 1280.59 460.99 C 1283.85 465.44, 1285.67 468.51, 1288.53 474.55 C 1291.39 480.59, 1292.88 484.11, 1294.89 491.19 C 1296.90 498.27, 1297.68 502.34, 1298.60 509.94 C 1299.51 517.55, 1299.49 521.73, 1299.45 529.23 C 1299.41 536.73, 1298.94 540.82, 1298.39 547.43 C 1297.83 554.04, 1297.44 557.26, 1296.66 562.27 C 1295.88 567.27, 1294.75 569.39, 1294.50 572.46 C 1294.25 575.53, 1295.01 576.13, 1295.40 577.61 C 1295.80 579.09, 1295.78 579.22, 1296.47 579.85 C 1297.17 580.48, 1297.85 580.98, 1298.87 580.78 C 1299.88 580.59, 1300.56 580.33, 1301.56 578.87 C 1302.56 577.40, 1303.43 576.67, 1303.86 573.46 C 1304.28 570.26, 1303.60 567.99, 1303.67 562.85 C 1303.74 557.71, 1303.98 554.50, 1304.21 547.77 C 1304.43 541.04, 1304.86 536.90, 1304.78 529.22 C 1304.70 521.53, 1304.72 517.23, 1303.81 509.33 C 1302.91 501.44, 1302.18 497.20, 1300.26 489.74 C 1298.34 482.27, 1296.98 478.58, 1294.22 472.01 C 1291.45 465.45, 1289.90 462.11, 1286.43 456.91 C 1282.97 451.71, 1281.06 449.13, 1276.89 446.01 C 1272.72 442.89, 1270.15 441.84, 1265.58 441.29 C 1261.02 440.75, 1258.47 441.32, 1254.05 443.28 C 1249.63 445.23, 1247.70 446.97, 1243.49 451.08 C 1239.28 455.18, 1237.20 458.02, 1232.99 463.79 C 1228.78 469.55, 1226.48 472.89, 1222.45 479.89 C 1218.41 486.90, 1216.50 491.22, 1212.82 498.80 C 1209.15 506.39, 1207.15 510.84, 1204.05 517.81 C 1200.96 524.79, 1199.44 528.43, 1197.36 533.67 C 1195.28 538.91, 1193.65 541.11, 1193.64 544.01 C 1193.64 546.90, 1195.80 548.08, 1197.34 548.15 C 1198.87 548.21, 1200.38 547.43, 1201.30 544.32 C 1202.23 541.20, 1201.61 538.34, 1201.96 532.57 C 1202.31 526.80, 1202.70 522.51, 1203.05 515.47 C 1203.41 508.42, 1203.55 504.36, 1203.74 497.34 C 1203.93 490.33, 1204.12 486.68, 1204.00 480.38 C 1203.89 474.09, 1203.73 470.89, 1203.16 465.87 C 1202.59 460.85, 1202.64 458.24, 1201.16 455.27 C 1199.68 452.30, 1197.81 451.36, 1195.77 451.03 C 1193.73 450.69, 1191.98 451.98, 1190.97 453.58" style="stroke: black; fill: black;"/></svg>